HIERARCHY
ROOT Hips
{
	OFFSET 0.00000 0.00000 0.00000
	CHANNELS 6 Xposition Yposition Zposition Zrotation Yrotation Xrotation 
	JOINT LHipJoint
	{
		OFFSET 0 0 0
		CHANNELS 3 Zrotation Yrotation Xrotation
		JOINT LeftUpLeg
		{
			OFFSET 1.38615 -1.80049 0.80104
			CHANNELS 3 Zrotation Yrotation Xrotation
			JOINT LeftLeg
			{
				OFFSET 2.50172 -6.87341 0.00000
				CHANNELS 3 Zrotation Yrotation Xrotation
				JOINT LeftFoot
				{
					OFFSET 2.67523 -7.35014 0.00000
					CHANNELS 3 Zrotation Yrotation Xrotation
					JOINT LeftToeBase
					{
						OFFSET 0.17446 -0.47932 2.13155
						CHANNELS 3 Zrotation Yrotation Xrotation
						End Site
						{
							OFFSET 0.00000 -0.00000 1.10023
						}
					}
				}
			}
		}
	}
	JOINT RHipJoint
	{
		OFFSET 0 0 0
		CHANNELS 3 Zrotation Yrotation Xrotation
		JOINT RightUpLeg
		{
			OFFSET -1.18047 -1.80049 0.80104
			CHANNELS 3 Zrotation Yrotation Xrotation
			JOINT RightLeg
			{
				OFFSET -2.59789 -7.13765 0.00000
				CHANNELS 3 Zrotation Yrotation Xrotation
				JOINT RightFoot
				{
					OFFSET -2.62125 -7.20183 0.00000
					CHANNELS 3 Zrotation Yrotation Xrotation
					JOINT RightToeBase
					{
						OFFSET -0.31287 -0.85960 2.07814
						CHANNELS 3 Zrotation Yrotation Xrotation
						End Site
						{
							OFFSET -0.00000 -0.00000 1.11766
						}
					}
				}
			}
		}
	}
	JOINT LowerBack
	{
		OFFSET 0 0 0
		CHANNELS 3 Zrotation Yrotation Xrotation
		JOINT Spine
		{
			OFFSET -0.01587 2.16157 -0.12309
			CHANNELS 3 Zrotation Yrotation Xrotation
			JOINT Spine1
			{
				OFFSET 0.04727 2.16674 -0.03569
				CHANNELS 3 Zrotation Yrotation Xrotation
				JOINT Neck
				{
					OFFSET 0 0 0
					CHANNELS 3 Zrotation Yrotation Xrotation
					JOINT Neck1
					{
						OFFSET -0.08586 1.60335 0.32783
						CHANNELS 3 Zrotation Yrotation Xrotation
						JOINT Head
						{
							OFFSET 0.07583 1.65857 -0.31618
							CHANNELS 3 Zrotation Yrotation Xrotation
							End Site
							{
								OFFSET 0.03386 1.69434 -0.14584
							}
						}
					}
				}
				JOINT LeftShoulder
				{
					OFFSET 0 0 0
					CHANNELS 3 Zrotation Yrotation Xrotation
					JOINT LeftArm
					{
						OFFSET 3.17393 1.01901 -0.52897
						CHANNELS 3 Zrotation Yrotation Xrotation
						JOINT LeftForeArm
						{
							OFFSET 5.25287 -0.00000 -0.00000
							CHANNELS 3 Zrotation Yrotation Xrotation
							JOINT LeftHand
							{
								OFFSET 3.51014 -0.00000 0.00000
								CHANNELS 3 Zrotation Yrotation Xrotation
								JOINT LeftFingerBase
								{
									OFFSET 0 0 0
									CHANNELS 3 Zrotation Yrotation Xrotation
									JOINT LeftHandIndex1
									{
										OFFSET 0.70618 -0.00000 -0.00000
										CHANNELS 3 Zrotation Yrotation Xrotation
										End Site
										{
											OFFSET 0.56934 -0.00000 -0.00000
										}
									}
								}
								JOINT LThumb
								{
									OFFSET 0 0 0
									CHANNELS 3 Zrotation Yrotation Xrotation
									End Site
									{
										OFFSET 0.57803 -0.00000 0.57803
									}
								}
							}
						}
					}
				}
				JOINT RightShoulder
				{
					OFFSET 0 0 0
					CHANNELS 3 Zrotation Yrotation Xrotation
					JOINT RightArm
					{
						OFFSET -2.99471 1.26495 -0.61125
						CHANNELS 3 Zrotation Yrotation Xrotation
						JOINT RightForeArm
						{
							OFFSET -5.28721 -0.00000 -0.00000
							CHANNELS 3 Zrotation Yrotation Xrotation
							JOINT RightHand
							{
								OFFSET -3.50544 -0.00000 0.00000
								CHANNELS 3 Zrotation Yrotation Xrotation
								JOINT RightFingerBase
								{
									OFFSET 0 0 0
									CHANNELS 3 Zrotation Yrotation Xrotation
									JOINT RightHandIndex1
									{
										OFFSET -0.88500 -0.00000 -0.00000
										CHANNELS 3 Zrotation Yrotation Xrotation
										End Site
										{
											OFFSET -0.71351 -0.00000 -0.00000
										}
									}
								}
								JOINT RThumb
								{
									OFFSET 0 0 0
									CHANNELS 3 Zrotation Yrotation Xrotation
									End Site
									{
										OFFSET -0.72440 -0.00000 0.72440
									}
								}
							}
						}
					}
				}
			}
		}
	}
}
MOTION
Frames: 11
Frame Time: .0083333
3.0045 17.7250 -2.4932 177.8120 -6.8325 -172.8210 0.0000 0.0000 0.0000 -27.1802 0.8599 -15.5739 2.3480 9.5562 27.5512 0.5047 -11.4310 -13.9884 0.0101 -0.6485 -1.7820 0.0000 0.0000 0.0000 14.0102 0.3250 -34.7745 -12.3589 -18.5383 67.1219 -0.5505 -4.3264 -16.2642 -0.1020 2.0593 -5.6697 -4.6916 -0.1331 -1.2020 -0.1328 -0.1852 -1.3677 2.4925 -0.0683 -0.7186 -10.3542 -3.5802 -21.7156 4.6395 -3.2552 24.2523 2.8893 -2.0073 11.8118 -0.0000 -0.0000 0.0000 -84.1045 -28.6135 48.5243 33.7276 -43.8819 -13.9239 -0.0000 -0.0000 0.1756 8.5933 33.8087 4.8064 -7.1250 0.0000 -0.0000 -28.7097 61.7700 -12.2671 -0.0000 -0.0000 0.0000 35.2991 51.3809 -12.2808 -21.4873 32.3928 -6.3090 0.0000 -0.0000 -9.4537 -3.4587 -2.8700 0.1734 7.1250 -0.0000 -0.0000 18.5189 -32.4371 5.9702
2.9969 17.7150 -2.6482 177.2770 -7.2218 -172.7460 0.0000 0.0000 0.0000 -27.7388 0.7728 -14.7394 2.2959 9.4570 27.2355 0.5523 -11.2895 -14.4097 0.0298 -1.1149 -3.0650 0.0000 0.0000 0.0000 13.3767 0.4225 -35.6160 -11.9412 -18.3657 65.8024 -0.5949 -3.5305 -16.2819 -0.0131 0.7400 -2.0337 -5.1601 -0.0595 -1.1819 -0.3909 -0.1003 -1.4524 2.4901 -0.0235 -0.8250 -9.8812 -3.7539 -21.3283 4.3709 -3.6313 24.0417 2.6460 -2.1654 11.6725 -0.0000 0.0000 0.0000 -84.0232 -28.5788 48.9906 34.6784 -44.5812 -14.5872 -0.0000 0.0000 -0.0244 8.5854 33.4661 4.7592 -7.1250 0.0000 -0.0000 -28.3759 61.4723 -11.9106 -0.0000 0.0000 0.0000 34.0639 51.1604 -13.7380 -21.8465 32.8031 -6.5025 0.0000 -0.0000 -10.8413 -3.6073 -3.8151 0.2403 7.1250 -0.0000 -0.0000 18.6007 -33.3410 5.5697
2.9903 17.7091 -2.8042 177.1190 -7.5862 -172.6130 0.0000 0.0000 0.0000 -27.8734 0.5828 -13.9172 2.2264 9.3226 26.8098 0.5985 -11.1107 -14.8003 0.0374 -1.2477 -3.4307 0.0000 0.0000 0.0000 13.1332 0.6552 -36.4406 -11.4818 -18.1629 64.3366 -0.6581 -3.3641 -16.9116 -0.0000 0.0221 -0.0607 -5.3925 -0.1219 -1.4479 -0.3394 -0.1612 -1.3730 2.6723 -0.0587 -0.5889 -9.8550 -3.8695 -21.3669 4.3620 -3.7847 23.9502 2.6120 -2.2262 11.6572 -0.0000 0.0000 0.0000 -84.0960 -28.7422 48.8834 35.6196 -45.2495 -15.2517 -0.0000 0.0000 -0.1911 8.7897 33.7241 4.9066 -7.1250 0.0000 -0.0000 -28.4218 61.7458 -12.1165 -0.0000 0.0000 0.0000 32.5407 51.6118 -15.6186 -22.0023 32.9797 -6.5871 0.0000 -0.0000 -11.8651 -3.6568 -3.9908 0.2548 7.1250 -0.0000 -0.0000 18.5997 -33.5102 5.4890
2.9874 17.7042 -2.9566 177.2160 -7.9833 -172.5570 0.0000 0.0000 0.0000 -27.7053 0.4977 -13.0942 2.1443 9.1603 26.2981 0.6303 -11.1152 -15.1054 0.0264 -1.0487 -2.8827 0.0000 0.0000 0.0000 13.2229 0.9530 -37.1142 -10.9806 -17.9256 62.7186 -0.6771 -3.6518 -17.2948 -0.0063 0.5139 -1.4122 -5.2308 -0.2623 -1.3341 -0.2392 -0.3578 -1.4594 2.6838 -0.1521 -0.7247 -10.1131 -3.8570 -21.6723 4.5684 -3.7097 24.1745 2.7455 -2.1921 11.8066 -0.0000 -0.0000 0.0000 -84.0508 -28.3930 48.4126 36.8536 -46.0913 -16.1345 -0.0000 0.0000 -0.2509 8.7260 33.9353 4.8974 -7.1250 0.0000 -0.0000 -28.7009 61.9122 -12.3598 -0.0000 -0.0000 0.0000 31.5000 51.9056 -16.6750 -22.3041 33.3190 -6.7521 0.0000 -0.0000 -13.0894 -3.6509 -4.2627 0.2717 7.1250 -0.0000 -0.0000 18.6632 -33.7680 5.3864
2.9838 17.6964 -3.1106 176.9940 -8.2882 -172.5530 0.0000 0.0000 0.0000 -27.9131 0.6597 -12.2658 2.0597 8.9894 25.7622 0.6915 -11.0043 -15.6462 0.0478 -1.4109 -3.8801 0.0000 0.0000 0.0000 12.9902 1.1100 -37.6343 -10.4543 -17.6575 60.9963 -0.7218 -3.8139 -17.8790 -0.0222 0.9619 -2.6441 -5.3738 -0.3518 -1.0104 -0.3043 -0.5089 -1.6342 2.6987 -0.2169 -1.0736 -10.0729 -3.8074 -21.6661 4.6309 -3.6675 24.1435 2.7695 -2.1600 11.7896 -0.0000 0.0000 0.0000 -83.8855 -27.8565 48.0908 38.1589 -46.9405 -17.0816 -0.0000 0.0000 -0.3776 8.2063 33.9176 4.6008 -7.1250 0.0000 -0.0000 -29.2189 61.7674 -12.5037 -0.0000 0.0000 0.0000 30.8639 51.8560 -17.2319 -22.6872 33.7450 -6.9638 0.0000 -0.0000 -14.4192 -3.1819 -4.6856 0.2602 7.1250 -0.0000 -0.0000 19.1259 -34.1455 5.3479
2.9828 17.6905 -3.2652 176.9190 -8.5869 -172.5510 0.0000 0.0000 0.0000 -27.9435 0.7939 -11.3894 1.9722 8.8080 25.1965 0.7344 -10.8125 -15.9889 0.0673 -1.6736 -4.6046 0.0000 0.0000 0.0000 12.9188 1.3029 -38.0598 -9.8829 -17.3435 59.0962 -0.6944 -4.2955 -17.8818 -0.0181 0.8680 -2.3856 -5.5190 -0.4562 -1.0384 -0.3078 -0.6445 -1.5975 2.7758 -0.2855 -1.0073 -9.9513 -3.8487 -21.6214 4.7595 -3.7904 23.9518 2.7762 -2.1784 11.7169 -0.0000 0.0000 0.0000 -83.6913 -27.6376 47.6766 39.2091 -47.5943 -17.8531 -0.0000 0.0000 -0.3639 8.2168 33.4181 4.5471 -7.1250 0.0000 -0.0000 -28.7076 61.3402 -11.9727 -0.0000 0.0000 0.0000 30.0167 52.0387 -18.1294 -23.0513 34.1449 -7.1671 0.0000 -0.0000 -15.6769 -2.6050 -5.2788 0.2398 7.1250 -0.0000 -0.0000 19.7178 -34.6750 5.2617
2.9819 17.6898 -3.4188 176.8970 -8.8255 -172.4030 0.0000 0.0000 0.0000 -27.9023 0.9492 -10.6340 1.8788 8.6089 24.5795 0.7405 -10.8093 -16.0439 0.0738 -1.7524 -4.8219 0.0000 0.0000 0.0000 12.7944 1.7546 -38.5458 -9.2709 -16.9789 57.0225 -0.6750 -4.8484 -18.0340 -0.0072 0.5467 -1.5022 -5.5758 -0.4893 -1.6819 -0.3098 -0.6267 -1.2396 2.7978 -0.2998 -0.2784 -10.0569 -4.1352 -21.7719 5.0060 -4.1561 23.5332 2.8215 -2.2936 11.6260 0.0000 0.0000 0.0000 -83.5382 -28.1121 47.5526 39.9538 -48.0425 -18.4049 -0.0000 0.0000 -0.4421 8.5739 32.7679 4.6651 -7.1250 0.0000 -0.0000 -27.7140 60.8629 -11.2050 0.0000 0.0000 0.0000 28.5279 52.0759 -19.5717 -23.5777 34.7145 -7.4647 0.0000 -0.0000 -17.2728 -2.2331 -6.1862 0.2408 7.1250 -0.0000 -0.0000 20.2333 -35.5071 4.9782
2.9795 17.6876 -3.5751 176.6920 -8.9067 -172.2020 0.0000 0.0000 0.0000 -28.0522 1.3518 -9.9672 1.7821 8.3967 23.9256 0.7782 -10.8188 -16.3863 0.1099 -2.1379 -5.8869 0.0000 0.0000 0.0000 12.4435 2.2464 -38.9815 -8.6418 -16.5716 54.8428 -0.7065 -4.9853 -18.4627 -0.0004 0.1284 -0.3528 -5.8117 -0.5027 -2.2354 -0.3178 -0.5885 -0.9340 2.9161 -0.3014 0.3453 -10.3221 -4.3569 -22.0893 5.3058 -4.3703 23.1981 2.9379 -2.3486 11.5931 0.0000 -0.0000 0.0000 -83.3977 -28.5238 47.4580 40.7282 -48.4955 -18.9828 -0.0000 0.0000 -0.8097 8.8059 32.5991 4.7709 -7.1250 0.0000 -0.0000 -27.3176 60.7710 -10.9704 0.0000 -0.0000 0.0000 27.1513 52.0869 -20.8089 -24.0628 35.2306 -7.7428 0.0000 -0.0000 -18.8473 -1.9337 -6.8018 0.2291 7.1250 -0.0000 -0.0000 20.6286 -36.0657 4.7870
2.9748 17.6849 -3.7281 176.6490 -8.9890 -172.0900 0.0000 0.0000 0.0000 -28.0170 1.7687 -9.1818 1.6705 8.1431 23.1496 0.8139 -10.9085 -16.7240 0.1132 -2.1694 -5.9740 0.0000 0.0000 0.0000 12.3708 2.6104 -39.2957 -8.0092 -16.1260 52.5960 -0.6894 -5.2598 -18.4695 -0.0003 0.1059 -0.2908 -5.8259 -0.5189 -2.2229 -0.3131 -0.6144 -0.9942 2.9287 -0.3118 0.2788 -10.3063 -4.3468 -22.1128 5.3879 -4.3720 23.1236 2.9653 -2.3334 11.5707 0.0000 0.0000 0.0000 -83.2042 -28.1837 47.2870 41.7021 -49.0466 -19.7153 -0.0000 0.0000 -0.9144 8.8778 32.6866 4.8217 -7.1250 0.0000 -0.0000 -27.3255 60.8650 -11.0354 0.0000 0.0000 0.0000 26.6803 52.0802 -21.4080 -24.3733 35.5565 -7.9226 0.0000 -0.0000 -19.9460 -1.5670 -6.8127 0.1859 7.1250 -0.0000 -0.0000 20.9236 -36.0526 4.8707
2.9706 17.6877 -3.8806 176.7900 -9.1158 -171.9830 0.0000 0.0000 0.0000 -27.7804 1.9722 -8.2332 1.5360 7.8243 22.1815 0.8062 -10.9308 -16.6622 0.0943 -1.9806 -5.4521 0.0000 0.0000 0.0000 12.5133 3.0139 -39.6248 -7.3846 -15.6474 50.3144 -0.5985 -5.9409 -17.9781 -0.0025 0.3209 -0.8816 -5.6118 -0.4933 -2.1382 -0.3397 -0.5993 -1.1559 2.7832 -0.2972 0.0612 -9.9126 -4.4054 -21.8798 5.2227 -4.5591 22.8974 2.8059 -2.4010 11.4417 0.0000 0.0000 0.0000 -82.9534 -27.6470 47.1700 42.6842 -49.5822 -20.4600 -0.0000 0.0000 -0.6620 8.7780 32.6688 4.7646 -7.1250 0.0000 -0.0000 -27.4113 60.8253 -11.0471 0.0000 0.0000 0.0000 26.5853 51.8610 -21.8678 -24.6196 35.8126 -8.0662 0.0000 -0.0000 -20.9087 -1.1594 -6.8501 0.1383 7.1250 -0.0000 -0.0000 21.2576 -36.0616 4.9529
2.9696 17.6874 -4.0427 176.6530 -9.1809 -171.8880 0.0000 0.0000 0.0000 -27.8417 2.1844 -7.0992 1.3887 7.4560 21.0736 0.7837 -10.7741 -16.4252 0.0915 -1.9508 -5.3697 0.0000 0.0000 0.0000 12.3186 3.3817 -39.9236 -6.7727 -15.1375 48.0094 -0.4894 -6.5908 -17.2521 -0.0033 0.3686 -1.0127 -5.7684 -0.5268 -2.1792 -0.4082 -0.6432 -1.1859 2.7991 -0.3198 0.0576 -9.7125 -4.5077 -21.8245 5.2904 -4.7717 22.6317 2.7610 -2.4616 11.3452 -0.0000 0.0000 0.0000 -82.6930 -27.1965 46.7463 43.4982 -50.0112 -21.0817 -0.0000 0.0000 -0.4565 8.9657 32.2505 4.8124 -7.1250 0.0000 -0.0000 -26.8325 60.5033 -10.5866 -0.0000 0.0000 0.0000 26.4909 51.7925 -22.2348 -24.9305 36.1329 -8.2489 0.0000 -0.0000 -22.0464 -0.8527 -7.3215 0.1087 7.1250 -0.0000 -0.0000 21.6291 -36.4803 4.8132
